# xmcd
#
# Track frame offsets: 
#        150
#        16760
#        33831
#        52410
#        80717
#        102255
#        115475
#        132598
#        173843
#        195688
#        216299
#
# Disc length: 3087 seconds
#
# Revision: 0
# Processed by: cddbd v1.5.2PL0 Copyright (c) Steve Scherf et al.
# Submitted via: ExactAudioCopyFreeDBPlugin 1.0
#
DISCID=9f0c0d0b
DTITLE=Koslowski - Live bei Milz On Wheelz CD1
DYEAR=2004
DGENRE=Blues
TTITLE0=Morgenstund hat Blei im Arsch
TTITLE1=Der dicke Junge
TTITLE2=Alles nur Beschiss
TTITLE3=Ich hasse dich
TTITLE4=Ich steh' heut nicht auf
TTITLE5=Warum ausgerechnet imme ich?
TTITLE6=Outlaw
TTITLE7=Du hast keine Tränen
TTITLE8=Fast Food
TTITLE9=Moni, Moni
TTITLE10=Stundenhotel
EXTD=
EXTT0=
EXTT1=
EXTT2=
EXTT3=
EXTT4=
EXTT5=
EXTT6=
EXTT7=
EXTT8=
EXTT9=
EXTT10=
PLAYORDER=
